
<svg xmlns="http://www.w3.org/2000/svg" aria-hidden="true" style="position:absolute;width:0;height:0;overflow:hidden">
  <defs>
    <symbol id="bin" viewBox="0 0 32 32">
      <path d="M4 10v20c0 1.1 0.9 2 2 2h18c1.1 0 2-0.9 2-2v-20h-22zM10 28h-2v-14h2v14zM14 28h-2v-14h2v14zM18 28h-2v-14h2v14zM22 28h-2v-14h2v14z"></path>
      <path d="M26.5 4h-6.5v-2.5c0-0.825-0.675-1.5-1.5-1.5h-7c-0.825 0-1.5 0.675-1.5 1.5v2.5h-6.5c-0.825 0-1.5 0.675-1.5 1.5v2.5h26v-2.5c0-0.825-0.675-1.5-1.5-1.5zM18 4h-6v-1.975h6v1.975z"></path>
  </symbol>
    <symbol id="movie" viewBox="0 0 32 32">
      <path fill="rgb(81, 29, 131)" d="M16 26.667h10.667v2.667H16c-7.364 0-13.333-5.97-13.333-13.333S8.637 2.668 16 2.668c7.364 0 13.333 5.97 13.333 13.333 0 3.002-.992 5.772-2.666 8h-3.612a10.64 10.64 0 0 0 3.611-8c0-5.891-4.776-10.667-10.667-10.667S5.332 10.11 5.332 16.001s4.776 10.667 10.667 10.667zm0-13.334a2.667 2.667 0 1 1 0-5.334 2.667 2.667 0 0 1 0 5.334zm-5.333 5.334a2.667 2.667 0 1 1 0-5.334 2.667 2.667 0 0 1 0 5.334zm10.666 0a2.667 2.667 0 1 1 0-5.334 2.667 2.667 0 0 1 0 5.334zM16 24a2.667 2.667 0 1 1 0-5.334A2.667 2.667 0 0 1 16 24z"/>
    </symbol>
    <symbol id="home" viewBox="0 0 32 32">
      <path d="M26.667 26.667c0 .736-.597 1.333-1.333 1.333H6.667a1.333 1.333 0 0 1-1.333-1.333v-12h-4l13.77-12.518a1.334 1.334 0 0 1 1.794 0l13.77 12.518h-4v12zM24 25.333V12.21l-8-7.273-8 7.273v13.123h16zm-8-2.666-4.478-4.478a3 3 0 1 1 4.243-4.243l.236.236.236-.236a3 3 0 1 1 4.243 4.243l-4.478 4.478z"/>
    </symbol>
  </defs>
</svg>